# AST/ASF file generated using VICON BodyLanguage
# -----------------------------------------------
:version 1.10
:name VICON
:units
  mass 1.0
  length 0.45
  angle deg
:documentation
   .ast/.asf automatically generated from VICON data using
   VICON BodyBuilder and BodyLanguage model FoxedUp or BRILLIANT.MOD
:root
   order TX TY TZ RX RY RZ
   axis XYZ
   position 0 0 0  
   orientation 0 0 0 
:bonedata
  begin
     id 1 
     name lhipjoint
     direction 0.682418 -0.694059 0.22932 
     length 2.25561 
     axis 0 0 0  XYZ
  end
  begin
     id 2 
     name lfemur
     direction 0.34202 -0.939693 0  
     length 6.96448  
     axis 0 0 20  XYZ
    dof rx ry rz
    limits (-160.0 20.0)
           (-70.0 70.0)
           (-60.0 70.0)
  end
  begin
     id 3 
     name ltibia
     direction 0.34202 -0.939693 0   
     length 6.88553   
     axis 0 0 20   XYZ
    dof rx
    limits (-10.0 170.0)
  end
  begin
     id 4 
     name lfoot
     direction 0.0723587 -0.198804 0.977364   
     length 1.88518   
     axis -90 7.62852e-016 20   XYZ
    dof rx rz
    limits (-45.0 90.0)
           (-70.0 20.0)
  end
  begin
     id 5 
     name ltoes
     direction 1.53558e-011 -4.21962e-011 1   
     length 0.952124   
     axis -90 7.62852e-016 20   XYZ
    dof rx
    limits (-90.0 20.0)
  end
  begin
     id 6 
     name rhipjoint
     direction -0.657603 -0.71533 0.236348   
     length 2.18854  
     axis 0 0 0  XYZ 
  end
  begin
     id 7 
     name rfemur
     direction -0.34202 -0.939693 0   
     length 6.86686   
     axis 0 0 -20   XYZ
    dof rx ry rz
    limits (-160.0 20.0)
           (-70.0 70.0)
           (-70.0 60.0)
  end
  begin
     id 8 
     name rtibia
     direction -0.34202 -0.939693 0   
     length 6.59503   
     axis 0 0 -20   XYZ
    dof rx
    limits (-10.0 170.0)
 end
 begin
     id 9 
     name rfoot
     direction -0.101977 -0.280179 0.954516   
     length 1.93723  
     axis -90 -7.62852e-016 -20   XYZ
    dof rx rz
    limits (-45.0 90.0)
           (-20.0 70.0)
  end
  begin
     id 10 
     name rtoes
     direction -1.53564e-011 -4.21897e-011 1   
     length 0.970315   
     axis -90 -7.62852e-016 -20   XYZ
    dof rx
    limits (-90.0 20.0)
  end
  begin
     id 11 
     name lowerback
     direction -0.0339559 0.999421 -0.00235966   
     length 1.88543   
     axis 0 0 0   XYZ
    dof rx ry rz
    limits (-20.0 45.0)
           (-30.0 30.0)
           (-30.0 30.0)
  end
  begin
     id 12 
     name upperback
     direction 0.00401003 0.999739 0.0224689   
     length 1.8856   
     axis 0 0 0   XYZ
    dof rx ry rz
    limits (-20.0 45.0)
           (-30.0 30.0)
           (-30.0 30.0)
  end
  begin
     id 13 
     name thorax
     direction 0.0198619 0.999546 0.0226536   
     length 1.88352   
     axis 0 0 0   XYZ
    dof rx ry rz
    limits (-20.0 45.0)
           (-30.0 30.0)
           (-30.0 30.0)
  end
  begin
     id 14 
     name lowerneck
     direction -0.0461848 0.998632 0.0245198   
     length 1.34895   
     axis 0 0 0   XYZ
    dof rx ry rz
    limits (-20.0 45.0)
           (-30.0 30.0)
           (-30.0 30.0)
  end
  begin
     id 15 
     name upperneck
     direction -0.0180627 0.994724 -0.100984   
     length 1.35214   
     axis 0 0 0   XYZ
    dof rx ry rz
    limits (-20.0 45.0)
           (-30.0 30.0)
           (-30.0 30.0)
  end
  begin
     id 16
     name head
     direction -0.00374772 0.999293 -0.037403  
     length 1.3568  
     axis 0 0 0   XYZ
    dof rx ry rz
    limits (-20.0 45.0)
           (-30.0 30.0)
           (-30.0 30.0)
  end
  begin
     id 17 
     name lclavicle
     direction 0.971773 0.191119 0.138311  
     length 2.84954  
     axis 0 0 0   XYZ
    dof ry rz
    limits (-20.0 10.0)
           (0.0 20.0)
  end
  begin
     id 18 
     name lhumerus
     direction 1 -4.4897e-011 -2.43761e-027   
     length 4.40919   
     axis 180 -30 -90   XYZ
    dof rx ry rz
    limits (-60.0 90.0)
           (-90.0 90.0)
           (-90.0 90.0)
  end
  begin
     id 19
     name lradius
     direction 1 -4.4896e-011 -9.1621e-027   
     length 3.03857   
     axis 180 -30 -90   XYZ
    dof rx
    limits (-10.0 170.0)
  end
  begin
     id 20
     name lwrist
     direction 1 -4.4896e-011 -1.41363e-026   
     length 1.51928   
     axis 1.07133e-014 90 90   XYZ
    dof ry
    limits (-180.0 0.0)
 end
  begin
     id 21 
     name lhand
     direction 1 -4.48978e-011 -2.82725e-026   
     length 0.523208   
     axis 1.80403e-014 90 90   XYZ
    dof rx rz
    limits (-90.0 90.0)
           (-45.0 45.0)
  end
  begin
     id 22 
     name lfingers
     direction 1 -4.48977e-011 -5.6545e-026   
     length 0.421824   
     axis 3.60806e-014 90 90   XYZ
    dof rx
    limits (0.0 90.0)
  end
  begin
     id 23
     name lthumb
     direction 0.707107 -6.34962e-011 0.707107   
     length 0.605657   
     axis -90 45 2.85299e-015   XYZ
    dof rx rz
    limits (-45.0 45.0)
           (-45.0 45.0)
  end
  begin
     id 24 
     name rclavicle
     direction -0.957247 0.24311 0.156766   
     length 3.12406  
     axis 0 0 0   XYZ 
    dof ry rz
    limits (-10.0 20.0)
           (-20.0 0.0)
  end
  begin
     id 25 
     name rhumerus
     direction -1 -4.48964e-011 -1.70632e-027  
     length 4.61969   
     axis 180 30 90   XYZ
    dof rx ry rz
    limits (-90.0 60.0)
           (-90.0 90.0)
           (-90.0 90.0)
  end
  begin
     id 26 
     name rradius
     direction -1 -4.48966e-011 -6.60395e-027   
     length 3.09382   
     axis 180 30 90   XYZ
    dof rx
    limits (-10.0 170.0)
  end
  begin
     id 27 
     name rwrist
     direction -1 -4.48963e-011 -1.41363e-026   
     length 1.54691   
     axis 1.07133e-014 -90 -90   XYZ
    dof ry
    limits (-180.0 0.0)
  end
  begin
     id 28
     name rhand
     direction -1 -4.49013e-011 -2.82725e-026   
     length 0.500896   
     axis 1.80403e-014 -90 -90   XYZ
    dof rx rz
    limits (-90.0 90.0)
           (-45.0 45.0)
  end
  begin
     id 29
     name rfingers
     direction -1 -4.48902e-011 -5.6545e-026   
     length 0.403835   
     axis 3.60806e-014 -90 -90   XYZ
    dof rx
    limits (0.0 90.0)
  end
  begin
     id 30
     name rthumb
     direction -0.707107 -6.34953e-011 0.707107   
     length 0.579829   
     axis -90 -45 -2.85299e-015   XYZ
    dof rx rz
    limits (-45.0 45.0)
           (-45.0 45.0)
  end
:hierarchy
  begin
    root lhipjoint rhipjoint lowerback
    lhipjoint lfemur
    lfemur ltibia
    ltibia lfoot
    lfoot ltoes
    rhipjoint rfemur
    rfemur rtibia
    rtibia rfoot
    rfoot rtoes
    lowerback upperback
    upperback thorax
    thorax lowerneck lclavicle rclavicle
    lowerneck upperneck
    upperneck head
    lclavicle lhumerus
    lhumerus lradius
    lradius lwrist
    lwrist lhand lthumb
    lhand lfingers
    rclavicle rhumerus
    rhumerus rradius
    rradius rwrist
    rwrist rhand rthumb
    rhand rfingers
  end

#!OML:ASF E:\madness\Project 1\Capture day 1\Session 1\Female1.ASF
:FULLY-SPECIFIED
:DEGREES
768
root 7.60586 16.4333 -1.64965 191.774 -75.973 -187.359
lowerback -7.73095 -0.601417 -4.56162
upperback -4.29021 -0.656672 0.311633
thorax -0.0606137 -0.316158 2.83401
lowerneck -3.6443 -2.41055 -1.89649
upperneck 33.222 -3.29788 -6.53551
head 11.2785 -3.23185 -2.57442
rclavicle 3.56694e-014 8.69683e-015
rhumerus -39.2622 13.0513 -100.383
rradius 108.155
rwrist -59.2928
rhand -14.8032 -60.2413
rfingers 7.12502
rthumb 11.3546 -89.9139
lclavicle 3.56694e-014 8.69683e-015
lhumerus -50.3 0.476395 93.6116
lradius 127.858
lwrist 56.9016
lhand -46.9289 35.9955
lfingers 7.12502
lthumb -19.6389 65.0236
rfemur 1.31536 16.1433 21.2111
rtibia -1.03368e-014
rfoot -6.4218 -15.6736
rtoes 20.3559
lfemur -6.42116 -8.82654 -15.0697
ltibia 18.6875
lfoot -7.59012 30.6751
ltoes 17.6358
769
root 7.61013 16.433 -1.64736 191.658 -75.9159 -187.239
lowerback -7.65593 -0.529239 -4.50919
upperback -4.31352 -0.568856 0.251128
thorax -0.134053 -0.27197 2.74927
lowerneck -3.31182 -2.65408 -2.00608
upperneck 32.8845 -3.64924 -6.50701
head 11.0715 -3.38622 -2.55022
rclavicle 2.95071e-015 4.17448e-015
rhumerus -39.2922 12.7003 -100.312
rradius 108.262
rwrist -59.2117
rhand -14.6666 -59.9981
rfingers 7.12502
rthumb 11.4863 -89.6634
lclavicle 2.95071e-015 4.17448e-015
lhumerus -50.2527 0.260604 93.6143
lradius 127.966
lwrist 56.9201
lhand -47.4083 36.0757
lfingers 7.12502
lthumb -20.0998 65.056
rfemur 1.26789 16.2074 21.2209
rtibia 7.95139e-016
rfoot -6.37455 -15.7427
rtoes 20.0554
lfemur -6.43441 -8.79136 -15.0518
ltibia 18.701
lfoot -7.54148 30.6644
ltoes 17.8206
770
root 7.61277 16.4319 -1.64604 191.324 -75.8795 -186.912
lowerback -7.61875 -0.533229 -4.45189
upperback -4.32678 -0.580307 0.287648
thorax -0.167232 -0.277316 2.75431
lowerneck -3.58668 -2.86348 -1.92795
upperneck 33.1805 -3.84804 -6.93778
head 11.225 -3.53252 -2.76735
rclavicle -7.16246e-015 -8.74653e-015
rhumerus -39.3118 12.5962 -100.241
rradius 108.311
rwrist -59.1794
rhand -14.5857 -60.5761
rfingers 7.12502
rthumb 11.5643 90.237
lclavicle -7.16246e-015 -8.74653e-015
lhumerus -50.2734 0.280342 93.6567
lradius 128.069
lwrist 56.8034
lhand -47.9703 35.8735
lfingers 7.12502
lthumb -20.6398 64.7961
rfemur 1.25784 16.2601 21.2988
rtibia 3.97569e-015
rfoot -6.4228 -15.7682
rtoes 19.8864
lfemur -6.41998 -8.74546 -14.9697
ltibia 18.692
lfoot -7.49334 30.7054
ltoes 18.0438
771
root 7.61663 16.4317 -1.64202 191.287 -75.8614 -186.866
lowerback -7.6236 -0.559632 -4.43988
upperback -4.31447 -0.61512 0.308449
thorax -0.148804 -0.295059 2.76637
lowerneck -4.28165 -3.01143 -1.79195
upperneck 33.8159 -3.95423 -7.35812
head 11.602 -3.64164 -3.02026
rclavicle 5.17461e-015 3.97569e-015
rhumerus -39.2928 12.5308 -100.167
rradius 108.352
rwrist -59.0972
rhand -14.3152 -61.2262
rfingers 7.12502
rthumb 11.8252 90.8724
lclavicle 5.17461e-015 3.97569e-015
lhumerus -50.2686 0.349588 93.7077
lradius 128.198
lwrist 56.7247
lhand -48.2988 36.9283
lfingers 7.12502
lthumb -20.9555 65.8163
rfemur 1.2289 16.2808 21.2836
rtibia -9.54166e-015
rfoot -6.49617 -15.7012
rtoes 19.9239
lfemur -6.43541 -8.75357 -14.9679
ltibia 18.6837
lfoot -7.50037 30.7279
ltoes 17.888
772
root 7.62086 16.4322 -1.63627 191.437 -75.8552 -187.019
lowerback -7.59651 -0.584392 -4.44079
upperback -4.29114 -0.647348 0.281951
thorax -0.137156 -0.311578 2.73711
lowerneck -4.68321 -3.11777 -1.72818
upperneck 34.0661 -4.05444 -7.5262
head 11.7755 -3.70798 -3.13495
rclavicle 1.43063e-014 3.97569e-015
rhumerus -39.2663 12.4677 -100.14
rradius 108.416
rwrist -58.9724
rhand -14.1024 -61.1853
rfingers 7.12502
rthumb 12.0304 90.8195
lclavicle 1.43063e-014 3.97569e-015
lhumerus -50.1684 0.353178 93.6891
lradius 128.321
lwrist 56.682
lhand -48.4834 37.6991
lfingers 7.12502
lthumb -21.1328 66.5674
rfemur 1.20661 16.2796 21.2155
rtibia -4.77083e-015
rfoot -6.50644 -15.662
rtoes 20.0038
lfemur -6.41413 -8.78208 -15.0377
ltibia 18.6449
lfoot -7.46226 30.7392
ltoes 17.5301
773
root 7.62235 16.4329 -1.63386 191.406 -75.8571 -186.957
lowerback -7.61991 -0.604732 -4.4125
upperback -4.27746 -0.674247 0.26738
thorax -0.108131 -0.326388 2.70383
lowerneck -4.68608 -3.22455 -1.72599
upperneck 33.9244 -4.17968 -7.59426
head 11.7111 -3.76478 -3.16413
rclavicle -2.17731e-014 -3.62782e-015
rhumerus -39.2834 12.4193 -100.126
rradius 108.47
rwrist -58.9474
rhand -14.5181 -60.6123
rfingers 7.12502
rthumb 11.6295 90.2696
lclavicle -2.17731e-014 -3.62782e-015
lhumerus -50.0509 0.314816 93.682
lradius 128.44
lwrist 56.6417
lhand -48.3913 37.8996
lfingers 7.12502
lthumb -21.0443 66.7778
rfemur 1.16673 16.2815 21.2125
rtibia -8.74653e-015
rfoot -6.52415 -15.6847
rtoes 19.9444
lfemur -6.38396 -8.75369 -15.0378
ltibia 18.5607
lfoot -7.32754 30.732
ltoes 17.3918
774
root 7.62046 16.4341 -1.63378 191.644 -75.8156 -187.184
lowerback -7.75395 -0.614221 -4.50453
upperback -4.22556 -0.67189 0.254317
thorax 0.0197188 -0.327205 2.74082
lowerneck -4.5962 -3.37708 -1.85956
upperneck 33.7429 -4.39003 -7.54762
head 11.6171 -3.8614 -3.12949
rclavicle -4.77704e-015 4.96962e-017
rhumerus -39.2399 12.3596 -100.035
rradius 108.416
rwrist -58.9219
rhand -14.9161 -60.0915
rfingers 7.12502
rthumb 11.2457 270.23
lclavicle -4.77704e-015 4.96962e-017
lhumerus -49.952 0.287223 93.7066
lradius 128.513
lwrist 56.5108
lhand -47.9368 36.7008
lfingers 7.12502
lthumb -20.6077 65.6269
rfemur 1.15755 16.3106 21.1318
rtibia -7.15625e-015
rfoot -6.51949 -15.7081
rtoes 19.716
lfemur -6.34922 -8.75278 -15.1191
ltibia 18.4929
lfoot -7.22695 30.791
ltoes 17.2948
775
root 7.62146 16.4328 -1.63223 192.077 -75.7893 -187.624
lowerback -7.86996 -0.681563 -4.66005
upperback -4.17728 -0.742912 0.252234
thorax 0.140303 -0.3636 2.81919
lowerneck -4.50618 -3.51958 -2.00597
upperneck 33.55 -4.5771 -7.53323
head 11.52 -3.95382 -3.10188
rclavicle 3.61974e-014 1.31695e-014
rhumerus -39.2308 12.4128 -99.9824
rradius 108.341
rwrist -58.7371
rhand -14.7707 -59.9396
rfingers 7.12502
rthumb 11.3859 270.39
lclavicle 3.61974e-014 1.31695e-014
lhumerus -49.8776 0.399 93.6698
lradius 128.634
lwrist 56.5353
lhand -47.5218 37.9166
lfingers 7.12502
lthumb -20.2089 66.8854
rfemur 1.1521 16.3133 20.9931
rtibia -3.97569e-015
rfoot -6.55103 -15.7203
rtoes 19.8677
lfemur -6.32084 -8.72071 -15.2628
ltibia 18.455
lfoot -7.11183 30.8075
ltoes 16.7145
776
root 7.62543 16.4309 -1.62955 192.09 -75.8106 -187.644
lowerback -7.88078 -0.745276 -4.67198
upperback -4.17251 -0.825991 0.251001
thorax 0.158179 -0.405467 2.81776
lowerneck -4.49643 -3.63487 -1.99064
upperneck 33.4719 -4.70273 -7.68929
head 11.4765 -4.02519 -3.1697
rclavicle -6.08157e-015 -6.4605e-015
rhumerus -39.3665 12.4165 -100.023
rradius 108.432
rwrist -58.5111
rhand -14.6513 -60.1062
rfingers 7.12502
rthumb 11.5011 270.229
lclavicle -6.08157e-015 -6.4605e-015
lhumerus -49.8846 0.485809 93.6032
lradius 128.886
lwrist 56.7235
lhand -47.0992 46.5168
lfingers 7.12502
lthumb -19.8027 75.528
rfemur 1.14801 16.2914 20.9806
rtibia -4.77083e-015
rfoot -6.60941 -15.6907
rtoes 20.1189
lfemur -6.29437 -8.65258 -15.2765
ltibia 18.4097
lfoot -6.9563 30.7488
ltoes 16.3501
777
root 7.627 16.4305 -1.62858 191.743 -75.8033 -187.292
lowerback -7.91964 -0.730308 -4.59519
upperback -4.14015 -0.80719 0.250671
thorax 0.21119 -0.39842 2.77513
lowerneck -4.11674 -3.83499 -2.21191
upperneck 33.0393 -5.00248 -7.5534
head 11.2295 -4.15214 -3.06765
rclavicle -3.36132e-014 -1.3418e-015
rhumerus -39.4267 12.2788 -99.9803
rradius 108.541
rwrist -58.4345
rhand -14.7471 -60.2922
rfingers 7.12502
rthumb 11.4087 270.038
lclavicle -3.36132e-014 -1.3418e-015
lhumerus -49.8837 0.445166 93.5815
lradius 129.073
lwrist 56.7206
lhand -47.4301 37.155
lfingers 7.12502
lthumb -20.1208 66.1331
rfemur 1.14004 16.3174 21.0761
rtibia 2.38542e-015
rfoot -6.5373 -15.6666
rtoes 19.9332
lfemur -6.28528 -8.66007 -15.183
ltibia 18.3883
lfoot -6.92451 30.7895
ltoes 16.676
778
root 7.6272 16.4312 -1.62777 191.593 -75.7836 -187.127
lowerback -7.95219 -0.71652 -4.587
upperback -4.12053 -0.786694 0.266984
thorax 0.247989 -0.388998 2.78864
lowerneck -3.05219 -4.09151 -2.85588
upperneck 31.9936 -5.47326 -6.96459
head 10.643 -4.3297 -2.68261
rclavicle -1.64681e-014 -1.42628e-014
rhumerus -39.4608 12.1857 -99.8574
rradius 108.565
rwrist -58.5187
rhand -14.9363 -60.0247
rfingers 7.12502
rthumb 11.2262 270.296
lclavicle -1.64681e-014 -1.42628e-014
lhumerus -49.8702 0.431946 93.5787
lradius 129.156
lwrist 56.6575
lhand -47.1713 32.9312
lfingers 7.12502
lthumb -19.8719 61.9352
rfemur 1.11119 16.3462 21.1122
rtibia -3.18055e-015
rfoot -6.44865 -15.6919
rtoes 19.6661
lfemur -6.30175 -8.68358 -15.1471
ltibia 18.416
lfoot -7.05367 30.8449
ltoes 17.1049
779
root 7.62837 16.4305 -1.62643 191.63 -75.7753 -187.186
lowerback -7.88132 -0.756285 -4.66006
upperback -4.14465 -0.839565 0.310312
thorax 0.189252 -0.412342 2.87117
lowerneck -2.18752 -4.22365 -3.3371
upperneck 31.1979 -5.73579 -6.59854
head 10.2004 -4.43287 -2.41647
rclavicle 3.92475e-014 5.46658e-016
rhumerus -39.5841 12.2054 -99.761
rradius 108.559
rwrist -58.5759
rhand -15.0233 -59.5909
rfingers 7.12502
rthumb 11.1423 270.725
lclavicle 3.92475e-014 5.46658e-016
lhumerus -49.8854 0.512921 93.5708
lradius 129.23
lwrist 56.6107
lhand -47.3997 33.9715
lfingers 7.12502
lthumb -20.0915 62.9527
rfemur 1.12541 16.3511 21.0938
rtibia -1.66979e-014
rfoot -6.47527 -15.7228
rtoes 19.4814
lfemur -6.28145 -8.64954 -15.1817
ltibia 18.4497
lfoot -7.15614 30.847
ltoes 17.243
780
root 7.63105 16.4293 -1.62602 191.637 -75.7563 -187.192
lowerback -7.80498 -0.811509 -4.74548
upperback -4.19744 -0.914682 0.358791
thorax 0.0999787 -0.445868 2.96462
lowerneck -1.82883 -4.26793 -3.35802
upperneck 30.8687 -5.7815 -6.73334
head 10.0036 -4.45998 -2.43296
rclavicle 2.15122e-014 -2.83268e-015
rhumerus -39.7387 12.231 -99.7037
rradius 108.582
rwrist -58.5505
rhand -15.0499 -59.5427
rfingers 7.12502
rthumb 11.1167 270.772
lclavicle 2.15122e-014 -2.83268e-015
lhumerus -49.9487 0.612329 93.5633
lradius 129.355
lwrist 56.4869
lhand -48.0724 34.5112
lfingers 7.12502
lthumb -20.738 63.4231
rfemur 1.12478 16.3693 21.0832
rtibia 2.38542e-015
rfoot -6.50009 -15.7359
rtoes 19.6572
lfemur -6.28108 -8.60719 -15.1943
ltibia 18.4603
lfoot -7.17033 30.8472
ltoes 16.9816
781
root 7.63538 16.4308 -1.62447 191.711 -75.7525 -187.199
lowerback -7.81005 -0.837494 -4.77433
upperback -4.24339 -0.950574 0.354362
thorax 0.058265 -0.462654 2.97371
lowerneck -1.59046 -4.36589 -3.2242
upperneck 30.5737 -5.88941 -6.93969
head 9.83256 -4.50484 -2.51095
rclavicle 2.086e-014 3.03147e-015
rhumerus -39.8064 12.1245 -99.6672
rradius 108.552
rwrist -58.3784
rhand -14.7932 -59.6005
rfingers 7.12502
rthumb 11.3642 270.727
lclavicle 2.086e-014 3.03147e-015
lhumerus -50.026 0.612197 93.5261
lradius 129.515
lwrist 56.3799
lhand -48.5114 32.948
lfingers 7.12502
lthumb -21.1597 61.8133
rfemur 1.0331 16.3744 21.0442
rtibia 0
rfoot -6.49881 -15.7091
rtoes 19.9427
lfemur -6.368 -8.60207 -15.1856
ltibia 18.4454
lfoot -7.24783 30.8445
ltoes 17.0354
